# xmcd
#
# Track frame offsets:
#	150
#	14126
#	27289
#	38842
#	50541
#	68402
#	84978
#	101911
#	115237
#	128236
#	142378
#	159369
#	170161
#	184087
#	200002
#	212610
#
# Disc length: 3022 seconds
#
# Revision: 1
# Processed by: cddbd v1.5.1PL2 Copyright (c) Steve Scherf et al.
# Submitted via: audiograbber 1.83.01
#
DISCID=ea0bcc10
DTITLE=Лейся песня - BEST
DYEAR=1900
DGENRE=
TTITLE0=Песенка сапожника
TTITLE1=Ты мне не снишься
TTITLE2=Кто тебе сказал
TTITLE3=Горько
TTITLE4=Как мы любили
TTITLE5=Наташка
TTITLE6=Черная птица
TTITLE7=Вот увидишь
TTITLE8=Где же ты была
TTITLE9=Клен
TTITLE10=Честно говоря
TTITLE11=Нет тебя прекрасней
TTITLE12=Сумерки
TTITLE13=Обручальное кольцо
TTITLE14=Тома
TTITLE15=Вот увидишь 1
EXTD=
EXTT0=
EXTT1=
EXTT2=
EXTT3=
EXTT4=
EXTT5=
EXTT6=
EXTT7=
EXTT8=
EXTT9=
EXTT10=
EXTT11=
EXTT12=
EXTT13=
EXTT14=
EXTT15=
PLAYORDER=
